<svg width="40" height="40" viewBox="0 0 40 40" fill="none" xmlns="http://www.w3.org/2000/svg">
<path d="M26.3248 16.4945L25.4436 15.6133L18.2686 22.7883L15.7811 20.3008L14.8936 21.1883L18.2686 24.557L26.3248 16.4945Z" fill="#BE3B5E"/>
<path d="M5 22.8125C5 31.0812 12.8938 37.5 19.6875 37.5C26.4813 37.5 34.375 31.0812 34.375 22.8125V5.1L19.4812 2.5L5 5.1V22.8125ZM6.25 6.15L19.4812 3.75L33.125 6.15V22.8125C33.125 30.2563 25.775 36.25 19.6875 36.25C13.6 36.25 6.25 30.2563 6.25 22.8125V6.15Z" fill="#212125"/>
<path d="M19.6875 32.4996C23.9563 32.4996 29.375 27.9371 29.375 22.8121V9.29961L19.4938 7.56836L10 9.28086V22.8121C10 27.9371 15.4188 32.4996 19.6875 32.4996ZM11.25 10.3246L19.4938 8.83711L28.125 10.3496V22.8121C28.125 27.1871 23.3688 31.2496 19.6875 31.2496C16.0062 31.2496 11.25 27.1559 11.25 22.8121V10.3246Z" fill="#212125"/>
</svg>
