<svg width="40" height="40" viewBox="0 0 40 40" fill="none" xmlns="http://www.w3.org/2000/svg">
<path d="M20.0003 8.06C20.2028 8.06 20.3678 7.89625 20.3678 7.69375V2.86625C20.3678 2.66375 20.2028 2.5 20.0003 2.5C19.7978 2.5 19.6328 2.66375 19.6328 2.86625V7.6925C19.6328 7.89625 19.7978 8.06 20.0003 8.06Z" fill="#212125"/>
<path d="M20.0003 31.9395C19.7978 31.9395 19.6328 32.1032 19.6328 32.3057V37.132C19.6328 37.3357 19.7978 37.4995 20.0003 37.4995C20.2028 37.4995 20.3678 37.3357 20.3678 37.1332V32.307C20.3678 32.1045 20.2028 31.9395 20.0003 31.9395Z" fill="#212125"/>
<path d="M11.0372 11.5581C11.1097 11.6306 11.2022 11.6656 11.2972 11.6656C11.3909 11.6656 11.4834 11.6306 11.5559 11.5594C11.6997 11.4156 11.6997 11.1831 11.5559 11.0394L8.14467 7.62688C8.00092 7.48313 7.76967 7.48438 7.62592 7.62688C7.48342 7.77063 7.48342 8.00313 7.62592 8.14688L11.0372 11.5581Z" fill="#BE3B5E"/>
<path d="M28.9625 28.4433C28.8188 28.2995 28.5862 28.3008 28.4437 28.4433C28.3 28.587 28.3 28.8195 28.4437 28.9633L31.855 32.3758C31.9275 32.447 32.02 32.4833 32.1137 32.4833C32.2087 32.4833 32.3012 32.447 32.3737 32.377C32.5162 32.2333 32.5162 32.0008 32.3737 31.857L28.9625 28.4433Z" fill="#BE3B5E"/>
<path d="M8.05875 20.001C8.05875 19.7985 7.895 19.6348 7.6925 19.6348H2.8675C2.66375 19.6335 2.5 19.7973 2.5 19.9998C2.5 20.2023 2.66375 20.366 2.8675 20.366H7.6925C7.895 20.3673 8.05875 20.2035 8.05875 20.001Z" fill="#212125"/>
<path d="M37.1322 19.6348H32.3072C32.1047 19.6348 31.9409 19.7985 31.9409 20.001C31.9409 20.2035 32.1047 20.3673 32.3072 20.3673H37.1322C37.3359 20.3673 37.4997 20.2035 37.4997 20.001C37.4997 19.7985 37.3359 19.6348 37.1322 19.6348Z" fill="#212125"/>
<path d="M11.0379 28.4437L7.62543 31.8562C7.48293 31.9987 7.48293 32.2325 7.62543 32.375C7.69793 32.4462 7.79043 32.4825 7.88543 32.4825C7.97918 32.4825 8.07168 32.4462 8.14418 32.375L11.5567 28.9625C11.7004 28.82 11.7004 28.5862 11.5567 28.4437C11.4142 28.3 11.1817 28.3 11.0379 28.4437Z" fill="#BE3B5E"/>
<path d="M28.7025 11.6648C28.7975 11.6648 28.89 11.6298 28.9625 11.5573L32.3737 8.14609C32.5162 8.00359 32.5162 7.76984 32.3737 7.62734C32.23 7.48359 31.9987 7.48359 31.855 7.62734L28.4437 11.0386C28.3 11.1811 28.3 11.4148 28.4437 11.5573C28.5162 11.6298 28.6088 11.6648 28.7025 11.6648Z" fill="#BE3B5E"/>
<path d="M11.0301 17.1625L19.7176 27.5537C19.7889 27.6375 19.8914 27.685 20.0001 27.685C20.1089 27.685 20.2114 27.6375 20.2826 27.5537L28.9701 17.1625C29.0889 17.0212 29.0826 16.8138 28.9576 16.6788L25.3576 12.7737C25.2839 12.695 25.1876 12.6587 25.0914 12.6587C25.0889 12.6587 25.0889 12.6562 25.0876 12.6562H20.0001H14.9126C14.9114 12.6562 14.9089 12.6587 14.9076 12.6587C14.8114 12.6587 14.7151 12.695 14.6426 12.7737L11.0426 16.6788C10.9176 16.8138 10.9114 17.0212 11.0301 17.1625ZM20.0001 25.95L17.5889 17.2937H22.4101L20.0001 25.95ZM20.8101 25.7763L23.1714 17.2937H27.9014L20.8101 25.7763ZM25.1601 13.6425L27.8489 16.56H23.5201L25.1601 13.6425ZM24.4601 13.3888L22.8501 16.2525L20.7289 13.3888H24.4601ZM22.1639 16.56H17.8351L20.0001 13.64L22.1639 16.56ZM19.2714 13.3888L17.1501 16.2525L15.5401 13.3888H19.2714ZM14.8401 13.6425L16.4801 16.56H12.1514L14.8401 13.6425ZM16.8289 17.2937L19.1901 25.7775L12.0989 17.2937H16.8289Z" fill="#212125"/>
</svg>
