<svg width="40" height="40" viewBox="0 0 40 40" fill="none" xmlns="http://www.w3.org/2000/svg">
<path d="M36.7493 8.8857L33.7708 7.9122C33.6753 7.8812 33.5723 7.8892 33.4848 7.9342C33.3958 7.9792 33.3283 8.0577 33.2978 8.1522L32.3443 11.0702C32.2798 11.2677 32.3873 11.4787 32.5838 11.5432C32.6228 11.5557 32.6618 11.5617 32.7003 11.5617C32.8578 11.5617 33.0048 11.4612 33.0568 11.3032L33.7848 9.0757C33.7913 9.1047 33.7943 9.1342 33.8078 9.1622C35.4503 12.4642 31.6008 19.3577 25.0183 24.9882H20.4168V15.6172H25.5693C25.8373 17.0372 25.9868 18.5832 25.9868 20.2012C25.9868 20.5922 25.9778 20.9792 25.9613 21.3612C25.9518 21.5682 26.1123 21.7437 26.3193 21.7522C26.5233 21.7762 26.7013 21.6012 26.7103 21.3942C26.7278 21.0012 26.7368 20.6027 26.7368 20.2007C26.7368 18.5817 26.5968 17.0392 26.3383 15.6167H31.9083C32.1153 15.6167 32.2833 15.4487 32.2833 15.2417C32.2833 15.1317 32.2338 15.0347 32.1583 14.9662C32.1768 14.8882 32.1763 14.8057 32.1403 14.7272C29.9963 10.0152 25.2673 6.9707 20.0923 6.9707C20.0813 6.9707 20.0703 6.9717 20.0588 6.9717C20.0528 6.9717 20.0473 6.9707 20.0413 6.9707C20.0223 6.9707 20.0043 6.9732 19.9853 6.9732C12.7403 7.0322 6.86275 12.9422 6.86275 20.2012C6.86275 23.9732 8.47925 27.5757 11.2988 30.0857C11.3708 30.1492 11.4593 30.1802 11.5483 30.1802C11.6513 30.1802 11.7543 30.1377 11.8288 30.0547C11.9663 29.8997 11.9523 29.6627 11.7978 29.5247C10.5888 28.4487 9.61725 27.1582 8.91375 25.7377H13.9568C14.2118 26.8442 14.5413 27.8842 14.9443 28.8187C15.0053 28.9602 15.1433 29.0452 15.2883 29.0452C15.3383 29.0452 15.3883 29.0352 15.4368 29.0142C15.6273 28.9322 15.7148 28.7117 15.6328 28.5217C15.2678 27.6747 14.9638 26.7367 14.7248 25.7377H19.6673V26.2822C19.6673 26.4892 19.8353 26.6572 20.0423 26.6572C20.2493 26.6572 20.4173 26.4892 20.4173 26.2822V25.7377H24.1078C20.7998 28.4082 17.3508 30.3662 14.3428 31.3972C14.3338 31.3997 14.3248 31.4027 14.3158 31.4062C11.3823 32.4072 8.87175 32.5332 7.34775 31.5632C7.17375 31.4527 6.94125 31.5037 6.83025 31.6782C6.71875 31.8527 6.77075 32.0847 6.94525 32.1957C7.77425 32.7237 8.83675 32.9762 10.0703 32.9762C11.3638 32.9762 12.8468 32.6937 14.4413 32.1627C16.1893 32.9897 18.0608 33.4167 20.0103 33.4282C20.0208 33.4282 20.0313 33.4307 20.0418 33.4307C20.0463 33.4307 20.0508 33.4297 20.0558 33.4297C20.0683 33.4297 20.0803 33.4307 20.0928 33.4307C27.3878 33.4307 33.3228 27.4962 33.3228 20.2012C33.3228 19.1092 33.1858 18.0252 32.9223 16.9742C34.7633 13.8057 35.4223 10.9067 34.5333 8.9502L36.5163 9.5982C36.7148 9.6627 36.9248 9.5552 36.9893 9.3587C37.0538 9.1612 36.9463 8.9497 36.7493 8.8857ZM20.4168 14.8672V7.7487C22.6258 8.0392 24.5113 10.8717 25.4148 14.8672H20.4168ZM19.6668 7.7487V14.8672H14.6688C15.5723 10.8717 17.4578 8.0392 19.6668 7.7487ZM31.3723 14.8672H26.1873C25.5113 11.7567 24.2553 9.2977 22.6718 7.9957C26.4373 8.7952 29.6888 11.3132 31.3723 14.8672ZM17.3828 8.0212C15.8128 9.3297 14.5683 11.7762 13.8963 14.8672H8.81275C10.4418 11.4367 13.5898 8.8647 17.3828 8.0212ZM8.57325 24.9882C7.94875 23.4857 7.61275 21.8617 7.61275 20.2017C7.61275 18.5837 7.92575 17.0377 8.48875 15.6177H13.7453C13.4873 17.0402 13.3468 18.5827 13.3468 20.2017C13.3468 21.8542 13.5043 23.4747 13.7978 24.9882H8.57325ZM14.5643 24.9882C14.2618 23.4817 14.0973 21.8607 14.0973 20.2017C14.0973 18.5837 14.2463 17.0377 14.5148 15.6177H19.6673V24.9882H14.5643ZM25.3578 25.7382C24.4108 29.6997 22.5173 32.3642 20.4168 32.6502V29.2867C21.9863 28.3167 23.5773 27.1752 25.1393 25.8702C25.1913 25.8267 25.2418 25.7822 25.2938 25.7382H25.3578ZM17.1528 31.0702C17.9763 30.6822 18.8173 30.2347 19.6668 29.7377V32.6527C18.7878 32.5327 17.9308 31.9927 17.1528 31.0702ZM15.4668 31.7922C15.7898 31.6667 16.1168 31.5317 16.4473 31.3872C16.7588 31.7767 17.0848 32.1132 17.4228 32.3932C16.7563 32.2482 16.1038 32.0472 15.4668 31.7922ZM22.6473 32.4172C24.1773 31.1677 25.4248 28.8247 26.1323 25.7382H31.2733C29.5943 29.1132 26.4343 31.6262 22.6473 32.4172ZM32.5728 20.2012C32.5728 21.8962 32.2318 23.5127 31.6168 24.9877H26.2873C26.2963 24.9407 26.3068 24.8952 26.3158 24.8482C28.8243 22.5912 30.8823 20.1922 32.3573 17.8957C32.4988 18.6532 32.5728 19.4252 32.5728 20.2012Z" fill="#212125"/>
<path d="M7.77428 27.6782C7.61478 27.5477 7.37778 27.5716 7.24678 27.7326L5.95578 29.3227C5.75878 28.0366 6.10428 26.3901 6.97378 24.5166C7.06078 24.3291 6.97928 24.1061 6.79128 24.0186C6.60628 23.9331 6.38078 24.0126 6.29328 24.2011C5.37978 26.1696 5.01028 27.9336 5.20328 29.3567L3.60378 28.0577C3.44428 27.9272 3.20728 27.9507 3.07628 28.1122C2.94528 28.2727 2.97028 28.5091 3.13078 28.6396L5.45778 30.5297C5.52478 30.5842 5.60828 30.6137 5.69428 30.6137C5.70678 30.6137 5.72028 30.6132 5.73278 30.6117C5.83178 30.6012 5.92278 30.5522 5.98528 30.4752L7.82878 28.2051C7.95978 28.0451 7.93478 27.8087 7.77428 27.6782Z" fill="#BE3B5E"/>
<path d="M26.442 7.13781C26.2435 7.19481 26.128 7.40231 26.185 7.60181C26.232 7.76631 26.3825 7.87331 26.5455 7.87331C26.5795 7.87331 26.6145 7.86881 26.649 7.85881C28.901 7.21331 30.7925 7.14431 32.116 7.66231C32.31 7.73831 32.5265 7.64281 32.602 7.44981C32.6775 7.25681 32.5825 7.03931 32.3895 6.96381C30.911 6.38531 28.8545 6.44581 26.442 7.13781Z" fill="#BE3B5E"/>
</svg>
