<svg height='100px' width='100px'  fill="#000000" xmlns="http://www.w3.org/2000/svg" viewBox="0 0 48 48" x="0px" y="0px"><title>Textile</title><path d="M1,34.6a2,2,0,0,0,1,1.74l19.49,11a5,5,0,0,0,4.92,0l19.5-11a2,2,0,0,0,0-3.49L39.66,29.3,46,25.74a2,2,0,0,0,0-3.48L39.66,18.7,46,15.15a2,2,0,0,0,0-3.49L26.46.65a5,5,0,0,0-4.92,0l-19.49,11a2,2,0,0,0,0,3.49L8.34,18.7,2.05,22.26a2,2,0,0,0,0,3.48L8.34,29.3,2,32.85A2,2,0,0,0,1,34.6ZM3,13.41l19.49-11a3,3,0,0,1,3,0L45,13.4l-19.49,11a3,3,0,0,1-3,0ZM3,24l7.34-4.15,2,1.15L8.64,23.13a1,1,0,0,0,0,1.74l14.87,8.41a1,1,0,0,0,1,0l14.87-8.41a1,1,0,0,0,0-1.74L35.59,21l2-1.15L45,24,25.48,35a3,3,0,0,1-3,0Z"></path></svg>